<?xml version="1.0" encoding="UTF-8" standalone="no"?>
<!-- Created with Inkscape (http://www.inkscape.org/) -->

<svg
   version="1.1"
   id="svg9"
   width="1140"
   height="520"
   viewBox="0 0 1140 520"
   sodipodi:docname="fulllogo.svg"
   inkscape:version="1.1.2 (b8e25be833, 2022-02-05)"
   xmlns:inkscape="http://www.inkscape.org/namespaces/inkscape"
   xmlns:sodipodi="http://sodipodi.sourceforge.net/DTD/sodipodi-0.dtd"
   xmlns="http://www.w3.org/2000/svg"
   xmlns:svg="http://www.w3.org/2000/svg">
  <defs
     id="defs13" />
  <sodipodi:namedview
     id="namedview11"
     pagecolor="#ffffff"
     bordercolor="#666666"
     borderopacity="1.0"
     inkscape:pageshadow="2"
     inkscape:pageopacity="0.0"
     inkscape:pagecheckerboard="0"
     showgrid="false"
     inkscape:zoom="0.46973684"
     inkscape:cx="637.59104"
     inkscape:cy="-103.2493"
     inkscape:window-width="1647"
     inkscape:window-height="1180"
     inkscape:window-x="468"
     inkscape:window-y="468"
     inkscape:window-maximized="0"
     inkscape:current-layer="g15" />
  <g
     inkscape:groupmode="layer"
     inkscape:label="Image"
     id="g15"
     style="display:inline">
    <g
       id="g279"
       transform="translate(4.257703,-10.644254)">
      <path
         style="fill:#2362b8"
         d="M 230,469.04282 C 195.26555,463.67956 165.33617,450.9617 138.02172,429.9586 129.16594,423.14906 106.22677,400.07727 99.784177,391.5 83.101192,369.28929 72.16164,345.94778 65.102327,317.5 c -6.826432,-27.50931 -6.826432,-66.49069 0,-94 7.059313,-28.44778 17.998865,-51.78929 34.68185,-74 6.442593,-8.57727 29.381763,-31.64906 38.237543,-38.4586 22.8639,-17.580908 46.11777,-28.653264 75.47828,-35.939073 27.50931,-6.826432 66.49069,-6.826432 94,0 29.32265,7.276412 52.42881,18.270308 75.47828,35.912513 10.09144,7.72405 34.16425,32.56371 41.17356,42.48516 8.4739,11.99453 12.13189,18.23189 11.39326,19.42703 -0.43862,0.7097 -7.83764,1.07066 -21.85412,1.06614 L 392.5,173.98633 390,170.24317 C 388.625,168.18443 382.31731,161.325 375.98292,155 344.75029,123.81371 304.29829,107 260.5,107 216.70688,107 176.27936,123.80201 145.00661,155 113.8986,186.03364 97,226.69031 97,270.5 c 0,75.3385 51.24422,140.59187 124.78789,158.90241 54.48137,13.56451 113.4552,-2.75433 153.23595,-42.40241 5.79432,-5.775 12.56878,-13.2 15.05435,-16.5 l 4.51922,-6 20.42429,-0.27142 c 11.23337,-0.14927 21.02711,-0.0401 21.76387,0.24263 1.77833,0.68241 -2.61175,8.86241 -11.55415,21.52879 -7.88148,11.16365 -31.51566,35.76663 -42.25314,43.98516 -28.15827,21.55252 -59.44126,34.57779 -94.76266,39.45628 -15.33507,2.11803 -43.15037,1.92757 -58.21562,-0.39862 z m 25.18538,-88.72664 c -0.72305,-0.28926 -1.7475,-1.66448 -2.27657,-3.05603 -1.34446,-3.53619 1.17621,-7.26015 4.91424,-7.26015 3.51111,0 5.17695,1.65028 5.17695,5.12857 0,4.47834 -3.60524,6.87161 -7.81462,5.18761 z m -56.6101,-9.23299 c -3.25427,-3.59593 1.79385,-8.31406 5.22472,-4.88319 1.80186,1.80186 1.4457,4.59814 -0.73426,5.76482 -2.514,1.34545 -2.46654,1.35477 -4.49046,-0.88163 z m 113.05686,-0.19799 c -1.71863,-2.4537 -1.1985,-4.57067 1.31936,-5.36981 2.7247,-0.86478 5.0485,0.46621 5.0485,2.8916 0,4.47893 -3.90267,5.99775 -6.36786,2.47821 z m -103.5343,-17.28105 c -2.91955,-3.10773 -2.47258,-7.25624 1.06511,-9.88551 3.47221,-2.58062 7.29854,-1.66069 9.31548,2.23965 3.68635,7.12861 -4.91486,13.46386 -10.38059,7.64586 z m 90.35671,-0.0587 C 297.10455,352.19545 296,350.15 296,349 c 0,-1.15 1.10455,-3.19545 2.45455,-4.54545 C 299.80455,343.10455 301.85,342 303,342 c 2.86031,0 7,4.36558 7,7.38197 0,2.7795 -4.16466,6.61803 -7.18031,6.61803 -1.05083,0 -3.01514,-1.10455 -4.36514,-2.45455 z m -45.70898,-2.94073 c -0.96493,-0.73243 -2.23338,-2.70561 -2.81877,-4.38487 -3.01893,-8.66009 9.76582,-15.19718 14.77375,-7.55411 3.88234,5.92519 0.17819,13.36297 -6.62486,13.30246 -1.96663,-0.0175 -4.36518,-0.63106 -5.33012,-1.36348 z M 431,336.90205 C 419.7471,334.70443 407.29855,325.52539 401.78291,315.3586 396.20868,305.08381 396,302.77902 396,251.4899 c 0,-35.29214 0.30064,-47.39054 1.2,-48.2899 1.25742,-1.25742 19.23628,-1.73729 22.21821,-0.59301 1.41129,0.54156 1.58179,5.66503 1.58179,47.53212 0,50.50068 0.0537,51.07589 5.29773,56.69226 4.88631,5.2333 5.42742,5.30625 44.57965,6.01018 L 507.5,313.5 l 0.2849,10.85548 c 0.18757,7.14676 -0.1105,11.33192 -0.87244,12.25 -0.95291,1.14818 -7.36254,1.37517 -36.2849,1.28495 C 451.3074,337.83017 433.475,337.3854 431,336.90205 Z m 283.46575,0.045 C 688.27936,334.40336 664.53509,315.44396 656.92284,291 c -7.86496,-25.25548 -1.86531,-50.096 16.55254,-68.53295 5.86897,-5.87506 10.17366,-9.13958 16.02462,-12.15249 15.06664,-7.75846 14.28274,-7.65063 58.71311,-8.07624 l 39.71312,-0.38043 0.57923,2.32106 c 0.31858,1.27658 0.44768,6.82105 0.28689,12.32105 l -0.29235,10 -38.5,0.52147 c -37.10921,0.50264 -38.69377,0.60307 -43.86383,2.78028 -11.31464,4.76479 -18.8243,11.90678 -23.68616,22.52648 -9.5501,20.86016 -0.45631,45.71117 20.47555,55.95448 L 709.5,311.5 748,312 c 21.175,0.275 39.0625,0.86406 39.75,1.30902 0.87413,0.56575 1.25,4.08832 1.25,11.71481 0,9.75879 -0.20343,11.01468 -1.93426,11.94099 -2.26168,1.21041 -60.10199,1.19625 -72.59999,-0.0178 z m 94.27724,0.36227 c -1.65727,-0.43263 -1.74243,-4.27234 -1.5,-67.63399 L 807.5,202.5 h 12 12 l 0.26366,32.75 c 0.20303,25.21788 0.54801,32.7431 1.5,32.72002 0.67999,-0.0165 17.40313,-14.86649 37.16254,-33 L 906.3524,202 h 17.39713 c 14.27304,0 17.33906,0.24757 17.07379,1.37862 C 940.6455,204.13686 928.125,216.0549 913,229.86315 c -15.125,13.80825 -27.64501,25.78536 -27.82225,26.61581 -0.17724,0.83045 12.31454,18.94991 27.75951,40.26547 25.13846,34.69352 27.90352,38.88659 26.38113,40.00557 -1.87206,1.37599 -23.37954,1.67453 -26.69958,0.37061 -1.03466,-0.40635 -11.8488,-14.43722 -24.03143,-31.17972 C 875.34644,287.74398 865.788,275.5 864.82325,275.5 c -1.48617,0 -13.0098,9.88652 -27.07325,23.22709 l -5.75,5.45444 v 15.87405 c 0,14.67075 -0.14662,15.95252 -1.93426,16.90924 -1.88154,1.00697 -17.7999,1.26416 -21.32275,0.3445 z m 174.86884,-0.37149 c -17.91129,-2.07846 -33.14623,-16.32716 -36.77456,-34.39394 -1.73433,-8.63583 -1.71156,-8.65183 11.8513,-8.32579 l 11.72686,0.2819 1.28233,4.43489 c 0.70528,2.43919 2.52431,5.74186 4.04229,7.33928 C 981.0842,311.89799 981.69456,312 1010,312 c 28.8314,0 29.2222,-0.0722 34.8022,-6.42754 6.7128,-7.64545 4.8608,-19.31724 -4.1225,-25.98051 -2.6752,-1.98427 -4.4253,-2.12245 -34,-2.68455 -17.14884,-0.32593 -32.54251,-1.05343 -34.20817,-1.61666 C 962.11483,271.78868 954.2783,264.83807 949.59455,255 c -2.81196,-5.90642 -3.088,-7.36754 -3.02286,-16 0.0556,-7.37302 0.53432,-10.50751 2.13802,-14 5.02178,-10.9363 13.47415,-18.34921 24.50736,-21.4935 4.87907,-1.39045 10.59568,-1.58363 39.00003,-1.31789 L 1045.5,202.5 l 6.5,3.09741 c 3.575,1.70358 8.4554,5.0072 10.8453,7.34138 5.4001,5.27411 10.0319,14.89372 10.3886,21.57531 l 0.2661,4.9859 -12.0209,0.27894 -12.0208,0.27894 -1.4792,-4.18835 c -0.8135,-2.30359 -2.7486,-5.12912 -4.3002,-6.27894 -2.6814,-1.98709 -4.2409,-2.10646 -31.5,-2.4111 -18.69082,-0.20888 -29.95926,0.0586 -32.3552,0.76806 -9.94873,2.94587 -11.94624,15.181 -3.50292,21.45605 2.68367,1.99449 4.33642,2.12152 34.00002,2.61309 36.8566,0.61078 38.2766,0.93333 49.2347,11.18411 11.0776,10.36256 16.006,24.06719 13.6325,37.9085 -3.3764,19.68952 -18.1723,33.59744 -38.1908,35.89871 -9.8796,1.13573 -41.36395,1.09273 -51.38537,-0.0702 z M 557.63847,335.46267 C 535.86885,330.01438 517.3067,312.54491 509.86347,290.5 507.84124,284.51065 507.5,281.55089 507.5,270 c 0,-11.17139 0.38257,-14.70743 2.21792,-20.5 3.23562,-10.21201 8.74993,-18.98418 17.36874,-27.63024 21.11021,-21.17695 53.43803,-25.67508 79.91334,-11.11925 8.51194,4.67978 21.56971,17.73755 26.24949,26.24949 14.55583,26.47531 10.0577,58.80313 -11.11925,79.91334 -8.43934,8.41275 -17.2654,14.03326 -27.13024,17.27679 -8.45411,2.77969 -28.598,3.46579 -37.36153,1.27254 z m 34.67658,-27.21684 c 26.20321,-12.30998 32.5726,-46.62406 12.57852,-67.76485 -20.3682,-21.53637 -56.42485,-15.69565 -69.16567,11.20397 -3.05895,6.45835 -3.22718,7.41696 -3.21411,18.31505 0.0124,10.36275 0.27907,12.06894 2.69636,17.25315 2.86945,6.15393 11.00542,15.48089 16.42685,18.83152 7.39595,4.57095 13.2966,5.97003 23.863,5.65805 8.8202,-0.26042 10.80404,-0.67298 16.81505,-3.49689 z M 225.68498,335.03887 C 217.86013,332.53526 212,324.1982 212,315.5696 c 0,-6.08968 3.70879,-13.15232 8.70116,-16.5696 3.11263,-2.1306 4.78284,-2.5 11.30341,-2.5 6.80596,0 8.04938,0.30377 11.25655,2.75 1.98299,1.5125 4.06885,2.75 4.63526,2.75 0.5664,0 2.84851,-5.68887 5.07137,-12.64194 3.07972,-9.63334 3.77332,-12.96513 2.91445,-14 C 255.02799,274.3288 251.26178,274 240.32653,274 h -14.42858 l -1.35814,3.25 c -3.39261,8.11849 -10.15021,12.68821 -18.82193,12.72804 -8.28115,0.038 -14.97996,-4.33144 -18.67545,-12.18153 -1.45954,-3.10043 -1.89415,-3.31437 -7.30645,-3.59669 -3.98339,-0.20779 -6.4358,0.17695 -7.9678,1.25 -2.78027,1.94738 -5.8212,1.97732 -8.32705,0.082 -1.497,-1.13227 -5.29955,-1.47547 -16.6197,-1.5 -11.98089,-0.026 -14.96738,-0.3206 -16.25,-1.60323 C 129.70714,271.56429 129,270.30429 129,269.62857 129,266.52342 131.47621,266 146.16607,266 c 11.50407,0 15.51131,-0.35538 18.13951,-1.60868 3.09989,-1.47823 3.62567,-1.47823 6.48426,0 1.82696,0.94476 5.54493,1.60868 9.00863,1.60868 h 5.89778 l 1.82596,-4.04926 c 2.22178,-4.92702 7.03436,-9.31926 12.0106,-10.96157 8.72918,-2.88089 19.43475,1.53074 23.54799,9.70382 1.33056,2.64386 2.8692,5.13762 3.4192,5.5417 1.52692,1.12181 21.29156,0.91158 21.99957,-0.234 0.33968,-0.54961 -2.83197,-5.49961 -7.04811,-11 -6.80947,-8.88363 -8.01676,-10.00384 -10.80859,-10.02886 -4.83917,-0.0434 -11.78954,-4.12145 -15.14287,-8.88496 -2.65343,-3.76928 -3.00568,-5.10569 -3.04918,-11.56839 l -0.0492,-7.3068 -5.95083,-7.84623 c -3.27295,-4.31543 -6.29773,-8.70268 -6.72173,-9.74946 C 198.81697,197.3641 201.31072,193 203.50963,193 c 0.80494,0 2.1228,-1.57786 2.92858,-3.50636 1.89104,-4.52588 5.821,-6.20904 9.25056,-3.96191 4.61521,3.024 4.93935,8.35538 0.67776,11.14768 -3.07186,2.01276 -2.98453,3.11516 0.59034,7.4521 l 2.95687,3.5872 5.6642,-1.91222 c 11.2937,-3.81273 22.33264,2.35269 25.51479,14.25041 1.53335,5.73301 0.6603,10.36413 -3.0596,16.22981 l -2.94249,4.63983 7.60237,10.07083 c 4.1813,5.53896 8.09225,9.90754 8.69099,9.70796 0.59875,-0.19958 2.63649,-5.21407 4.52832,-11.1433 2.75117,-8.62254 3.20381,-11.10887 2.26129,-12.42123 -7.92421,-11.03374 -3.52869,-26.20516 9.12392,-31.49176 3.19153,-1.3335 3.35435,-1.75191 16.6349,-42.74786 12.33738,-38.0845 16.0662,-47.91583 16.06832,-42.36547 4.1e-4,1.08036 -5.84959,20.01316 -13,42.07288 C 289.85034,184.66832 284,202.99934 284,203.34419 c 0,0.34486 1.99866,1.13028 4.44148,1.74539 9.78698,2.46439 16.41521,12.02924 15.23595,21.98623 -1.06058,8.95493 -6.12407,14.71403 -15.03138,17.09637 -3.71665,0.99405 -5.49125,0.98918 -8.89453,-0.0244 -9.33692,-2.78087 -8.21931,-3.60321 -12.14697,8.93774 -2.55317,8.15221 -3.24314,11.64506 -2.48162,12.56264 0.64005,0.77122 4.06713,1.38516 8.71593,1.56142 L 281.5,267.5 v 3 c 0,2.78053 -0.29263,3.02318 -4,3.31683 -5.55514,0.44 -6.14514,1.4708 -3.11541,5.44297 3.30308,4.33057 3.39722,8.18183 0.25039,10.24372 -3.33497,2.18515 -6.41572,0.73449 -10.4834,-4.93641 -1.84163,-2.56749 -3.85874,-4.49806 -4.48247,-4.29015 -0.62372,0.20791 -3.01565,6.33132 -5.31541,13.60759 -3.41604,10.80814 -4.0141,13.81277 -3.26753,16.41591 2.38493,8.31577 -1.3556,18.01501 -8.58039,22.24902 -4.71665,2.76414 -12.40561,3.90207 -16.8208,2.48939 z m 49.70442,-1.53212 C 261.7111,326.69057 260.14713,309.26282 272.34282,299.55797 275.88898,296.73607 276.7889,296.5 284,296.5 c 7.2111,0 8.11102,0.23607 11.65718,3.05797 5.91169,4.70429 8.59479,10.65789 8.00403,17.76039 -0.6322,7.60066 -4.12008,12.73477 -10.97061,16.14853 -6.40422,3.19136 -10.95593,3.20185 -17.3012,0.0399 z M 163.57143,326.42857 C 162.70714,325.56429 162,323.98929 162,322.92857 162,320.63877 165.37573,317 167.5,317 c 2.12427,0 5.5,3.63877 5.5,5.92857 0,2.63139 -2.64625,5.07143 -5.5,5.07143 -1.29643,0 -3.06429,-0.70714 -3.92857,-1.57143 z m 180.46375,-0.36283 c -1.71346,-3.20163 -1.17984,-5.92485 1.50578,-7.68454 5.14389,-3.3704 11.02027,3.13119 6.92257,7.65909 -2.3133,2.55617 -7.06627,2.57052 -8.42835,0.0254 z M 191.357,315.02995 C 182.90105,311.53258 185.37501,298.6 194.5,298.6 c 7.23471,0 11.05193,8.43245 6.25,13.80659 -2.57233,2.87886 -6.27499,3.91297 -9.393,2.62336 z M 319,315.29377 c -8.30133,-3.0346 -7.83648,-14.14437 0.70002,-16.73036 3.11446,-0.94347 7.7794,1.7656 9.28045,5.38943 1.64429,3.96968 -0.11546,8.54848 -4.07166,10.59432 -2.98294,1.54254 -3.53923,1.61283 -5.90881,0.74661 z m -18.12895,-27.24481 c -6.77459,-3.68236 -10.85097,-10.66148 -10.86547,-18.60262 -0.008,-4.11055 4.33588,-12.58404 7.73767,-15.09538 10.1868,-7.52032 24.10838,-4.47072 29.92998,6.55632 4.51612,8.55426 2.03747,19.12663 -5.9796,25.50525 -3.24562,2.58231 -4.79247,3.07122 -10.5,3.31871 -5.16727,0.22407 -7.52115,-0.15955 -10.32258,-1.68228 z M 344,275 c -5.69009,-5.69009 1.46595,-15.01607 7.87017,-10.25666 3.44926,2.56338 4.01031,7.37618 1.18879,10.1977 -2.61078,2.61078 -6.48194,2.63598 -9.05896,0.059 z m 24.2,-2.2 c -1.79987,-1.79987 -1.44655,-4.59768 0.72756,-5.76123 2.44244,-1.30715 4.81709,-0.41868 5.61699,2.1016 C 375.73027,272.87624 371.003,275.603 368.2,272.8 Z M 188.92308,239.07692 c -3.11994,-3.11993 -3.63536,-5.87104 -1.75974,-9.39266 1.73676,-3.26089 3.96144,-4.61703 7.63211,-4.65246 7.46074,-0.072 11.08543,9.39379 5.55853,14.51595 -3.63856,3.3721 -7.75764,3.20244 -11.4309,-0.47083 z m 126.53147,0.46853 C 310.32613,234.41704 313.85084,225 320.89878,225 c 4.59091,0 8.50122,3.90975 8.50122,8.5 0,7.38973 -8.79046,11.20045 -13.94545,6.04545 z M 163.57143,221.42857 c -2.42282,-2.42282 -1.94377,-6.1385 1.0438,-8.09603 2.34235,-1.53476 2.89016,-1.55996 5.25,-0.24151 C 174.82518,215.86217 173.1214,223 167.5,223 c -1.29643,0 -3.06429,-0.70714 -3.92857,-1.57143 z m 181,0 c -2.17258,-2.17257 -1.96556,-5.76191 0.45885,-7.95597 4.55291,-4.12033 11.61745,2.94421 7.49712,7.49712 -2.19406,2.42441 -5.7834,2.63143 -7.95597,0.45885 z m -92.59712,-18.95591 c -3.40881,-3.62852 -3.23991,-8.98729 0.38145,-12.10225 4.52839,-3.89516 10.8262,-2.54557 13.0746,2.8018 3.62026,8.61006 -7.12651,16.03793 -13.45605,9.30045 z m 46.09827,-7.10752 c -2.39744,-3.04785 -2.45311,-3.43587 -0.96231,-6.70782 C 300.1951,181.88687 310,184.23612 310,191.7457 c 0,2.91476 -3.71976,6.2543 -6.96637,6.2543 -1.92939,0 -3.57664,-0.87487 -4.96105,-2.63486 z m -99.11284,-21.19666 c -1.89349,-1.53325 -2.05147,-2.12856 -1.05768,-3.98548 1.37032,-2.56046 5.58917,-2.95122 6.49095,-0.60121 1.05092,2.73865 0.66928,4.3145 -1.30015,5.36851 -1.44838,0.77515 -2.44259,0.58709 -4.13312,-0.78182 z M 312,174 c -2.5903,-2.5903 -1.16959,-6 2.5,-6 4.29632,0 5.30899,4.96149 1.43577,7.03438 -1.46492,0.784 -2.35,0.55139 -3.93577,-1.03438 z m 194.73976,1.35951 c -1.6515,-0.47859 -1.74417,-3.26994 -1.5,-45.18481 L 505.5,85.5 535,85.213105 c 20.42714,-0.19866 30.82336,0.07653 33.80285,0.894759 5.74313,1.577184 13.57973,8.708591 15.71567,14.301446 1.67501,4.38596 1.65814,13.4718 -0.037,19.91466 -0.63032,2.39576 -0.20074,3.38138 2.83302,6.5 5.34392,5.4934 7.63927,11.39426 7.6537,19.67603 0.0207,11.90721 -6.34319,21.62315 -17.46827,26.66915 -4.82565,2.18877 -6.11586,2.27539 -37,2.48416 -17.6,0.11897 -32.79211,-0.0132 -33.76024,-0.2938 z M 574.6,154.6 c 2.77421,-2.77421 3.4,-4.16377 3.4,-7.54966 0,-5.91098 -2.2013,-9.5136 -6.98182,-11.42639 C 567.72587,134.30663 563.01362,134 546.06155,134 c -11.49389,0 -21.60978,0.27314 -22.47976,0.60699 -1.31431,0.50435 -1.58179,2.53355 -1.58179,12 V 158 h 24.6 24.6 z m -8.63944,-38.57889 c 2.39359,-1.28101 3.97815,-5.9545 2.95587,-8.71799 -1.82371,-4.92995 -4.06151,-5.3663 -26.0232,-5.07428 L 522.5,102.5 l -0.29381,7.25 -0.29381,7.25 h 21.10955 c 11.85722,0 21.91124,-0.42905 22.93863,-0.97889 z m 61.08438,58.88646 c -5.99024,-1.17422 -12.76722,-5.52132 -16.75179,-10.74544 -5.92627,-7.76987 -6.35251,-11.05717 -6.05746,-46.71727 L 604.5,85.5 h 8 8 L 621,118 c 0.36586,23.78111 0.84329,33.10084 1.77964,34.73965 2.72816,4.77484 5.47269,5.26035 29.73644,5.26035 13.67702,0 23.37989,0.40914 24.54966,1.03518 1.61971,0.86685 1.93426,2.13528 1.93426,7.8 0,3.92819 -0.50318,7.268 -1.2,7.96482 -1.4275,1.4275 -43.56592,1.51681 -50.75506,0.10757 z m 188.67374,0.0406 c -13.19224,-1.53485 -27.78239,-11.29991 -34.02755,-22.77434 -5.14013,-9.44411 -6.95227,-21.99131 -4.63059,-32.06205 3.69953,-16.04744 18.00492,-30.351888 34.05412,-34.051887 2.41194,-0.556051 15.69536,-1.022002 29.51871,-1.035447 L 865.76674,85 l 0.60297,2.25 c 1.03854,3.875278 0.68526,11.295265 -0.61971,13.0159 -1.09278,1.44086 -4.45733,1.68501 -26.75,1.94113 -24.56947,0.28228 -25.66421,0.37909 -30,2.65299 -6.18327,3.24281 -9.7391,6.7629 -12.70507,12.57741 -7.23602,14.18553 -1.27512,31.43134 13.20507,38.20432 4.81541,2.25237 5.9111,2.33907 29.67857,2.34848 C 867.88473,158.00159 867,157.71508 867,167 c 0,9.17248 0.40275,9.02253 -23.82143,8.86857 -11.37321,-0.0723 -23.73016,-0.48646 -27.45989,-0.9204 z M 879.67846,174.75 c -1.56738,-1.14991 -1.68277,-4.77306 -1.44113,-45.25 L 878.5,85.5 h 8 8 l 0.5,20.9179 c 0.30585,12.79544 0.89358,21.04861 1.51359,21.25452 0.55747,0.18515 11.58247,-9.33972 24.5,-21.16637 L 944.5,85.00304 l 11.25,-0.0015 c 8.55938,-0.0012 11.25,0.3091 11.25,1.29724 0,0.714319 -8.1,8.654987 -18,17.64593 -9.9,8.99094 -18,16.93233 -18,17.64752 0,0.71519 7.91423,12.18994 17.58718,25.49945 9.67294,13.30952 17.83851,24.85411 18.14571,25.65465 0.88771,2.31332 -1.71051,3.22193 -9.26038,3.23838 -4.65638,0.0101 -7.75163,-0.49189 -9.17367,-1.48793 -1.1804,-0.82678 -8.51593,-10.27678 -16.30119,-21 C 924.21239,142.77354 917.43016,134 916.92602,134 c -0.50413,0 -5.64372,4.32561 -11.42131,9.61246 L 895,153.22493 v 10.7709 c 0,10.3245 -0.0933,10.7959 -2.25,11.37388 -3.87173,1.03759 -11.29209,0.68579 -13.07154,-0.61971 z M 710.5,173.59785 c -10.24674,-3.24912 -21.13965,-11.71408 -26.21215,-20.36964 -10.8262,-18.47352 -7.32098,-41.7728 8.46449,-56.263616 14.3355,-13.159761 35.18477,-15.654867 52.42149,-6.273467 6.94174,3.778168 15.32797,13.020423 19.07426,21.021273 4.31254,9.21014 5.04533,21.74771 1.86886,31.97464 -4.22084,13.58937 -15.64961,25.23504 -28.72986,29.27512 -7.60308,2.34835 -20.52258,2.65381 -26.88709,0.63569 z m 24.96684,-18.10052 c 5.07264,-2.4693 10.56675,-7.96591 13.02457,-13.03049 3.01819,-6.21929 3.23515,-16.90714 0.47352,-23.32672 -2.84522,-6.6139 -10.27091,-13.41672 -17.1331,-15.69598 -10.32669,-3.42997 -22.50986,-0.025 -29.8835,8.3519 -12.2889,13.96093 -7.55245,35.72976 9.55167,43.8997 4.18425,1.99865 6.22362,2.33481 12.5,2.06045 4.79379,-0.20955 8.93134,-1.02461 11.46684,-2.25886 z m -480.28146,14.81885 c -0.72305,-0.28926 -1.7475,-1.66448 -2.27657,-3.05603 -1.34446,-3.53619 1.17621,-7.26015 4.91424,-7.26015 3.5153,0 5.17695,1.65085 5.17695,5.1433 0,3.94886 -4.09633,6.66042 -7.81462,5.17288 z"
         id="path283" />
      <path
         style="fill:#101010"
         d="M 231,468.04282 C 196.0986,462.65378 164.76532,449.28957 137.02172,427.95939 128.19668,421.17441 108.23695,401.08864 101.78486,392.5 80.829039,364.6049 67.340907,331.84095 62.558564,297.21562 57.333395,259.38412 64.099122,217.48035 81.093957,182.41601 91.179991,161.60615 100.73396,148.17057 117.89614,130.66178 145.19199,102.81464 175.23868,85.845019 214.5,76.102327 c 27.3209,-6.779679 64.6791,-6.779679 92,0 29.56908,7.337564 54.33467,19.144723 77.47828,36.938283 8.82504,6.78498 28.78477,26.87075 35.23686,35.45939 C 425.91743,157.42167 434,170.06543 434,171.62831 434,172.74558 430.22921,173 413.66952,173 h -20.33048 l -3.22664,-4.49302 c -4.74919,-6.61312 -21.49727,-23.03777 -29.60683,-29.03507 -24.05307,-17.78809 -50.67239,-28.92339 -77.41457,-32.3838 -11.72451,-1.51713 -35.67419,-1.32587 -47.591,0.38007 -43.5004,6.22725 -86.17566,33.1487 -110.94049,69.98618 C 104.78778,206.86467 96.040388,235.401 96.037762,270.5 c -0.0026,35.2157 8.690688,63.54708 28.574668,93.12435 24.84251,36.95304 67.19746,63.55517 111.38757,69.95988 11.23625,1.62853 35.64441,1.8349 46.67764,0.39467 27.17953,-3.54792 53.77875,-14.6656 78.07345,-32.63237 8.80658,-6.51278 25.69498,-23.44392 30.84845,-30.92653 l 3.7329,-5.42 h 20.33378 c 11.18358,0 20.32841,0.3375 20.32186,0.75 -0.0241,1.51527 -6.66462,12.5278 -12.97238,21.51316 -7.70542,10.97631 -28.48064,32.64983 -39.03742,40.72535 -28.64074,21.90905 -61.2723,35.55111 -96.76266,40.45293 C 272.03957,470.5375 245.95877,470.35257 231,468.04282 Z M 432.18599,335.88211 C 415.36385,333.08344 401.29024,318.91775 398.09327,301.56634 397.40453,297.82827 397,278.68662 397,249.83539 V 204.0381 l 2.25,-0.56312 c 1.2375,-0.30972 6.3,-0.43079 11.25,-0.26905 l 9,0.29407 0.5,48.57442 0.5,48.57443 2.75112,4.15582 c 1.51311,2.2857 4.66311,5.17721 7,6.42558 4.13409,2.20843 5.22149,2.28326 40.24888,2.76975 l 36,0.5 0.28684,10.41821 c 0.21094,7.66142 -0.0537,10.63427 -1,11.23469 -1.72144,1.09222 -66.8484,0.8526 -73.60085,-0.27079 z m 125.02954,-1.84287 c -11.66968,-3.15018 -20.65389,-8.43381 -29.78164,-17.51462 -13.98034,-13.90843 -20.14223,-29.90617 -19.21613,-49.88962 1.31461,-28.36662 18.95673,-51.35482 46.28224,-60.30711 10.13758,-3.32124 26.23371,-3.73098 36.5,-0.92914 22.81075,6.22543 41.37582,24.7905 47.60125,47.60125 2.80184,10.26629 2.3921,26.36242 -0.92914,36.5 -6.6811,20.39304 -21.31667,35.63168 -41.17211,42.86862 -10.82099,3.94406 -28.13508,4.68036 -39.28447,1.67062 z M 589,310.71362 c 30.01171,-10.9584 38.5048,-49.11358 15.95238,-71.666 C 582.76201,216.85724 545.09859,224.74645 533.56909,254 519.97957,288.48037 554.14793,323.43942 589,310.71362 Z m 115.21553,23.27374 C 686.29208,329.27665 670.03197,316.13663 662.1579,300 c -6.07882,-12.45755 -7.4813,-19.13503 -6.92565,-32.97421 0.5357,-13.34202 2.62453,-20.65938 8.9725,-31.43143 7.99089,-13.55997 21.13865,-23.90198 37.29525,-29.33641 l 8,-2.69088 39,-0.0335 39,-0.0335 v 11 11 l -38,0.53148 c -40.96946,0.57301 -41.04689,0.58274 -50.98125,6.40466 -5.95353,3.489 -14.28137,12.77824 -17.03229,18.99857 -5.53103,12.50663 -5.40912,24.81852 0.36604,36.96705 5.13669,10.80545 13.10948,18.05845 25.04222,22.78138 5.33409,2.11122 7.41957,2.24512 43.10528,2.76771 l 37.5,0.54915 v 10.5 10.5 l -38,0.20094 c -34.62405,0.18309 -38.64716,0.0309 -45.28447,-1.71358 z M 808.24285,269.78282 808.5,203.5 h 11 11 l 0.26348,33.25 c 0.20806,26.25652 0.5334,33.25 1.54677,33.25 0.70582,0 16.142,-13.6125 34.30264,-30.25 18.16064,-16.6375 34.69275,-31.7125 36.73803,-33.5 l 3.71867,-3.25 h 15.96521 c 8.78086,0 15.9652,0.36067 15.9652,0.80149 0,0.44083 -11.8125,11.63872 -26.25,24.88421 -14.4375,13.2455 -27.08812,25.01369 -28.11248,26.15154 -1.8443,2.04863 -1.59168,2.44267 25.87551,40.3611 15.2559,21.06075 27.95467,38.85688 28.21948,39.54696 0.37155,0.96826 -2.61517,1.2547 -13.08289,1.2547 h -13.56436 l -2.57045,-3.25 c -1.41375,-1.7875 -11.70393,-15.85 -22.86705,-31.25 -11.16313,-15.4 -20.8383,-28 -21.50039,-28 -0.66208,0 -8.6052,6.69043 -17.65137,14.86762 l -16.44759,14.86762 -0.2742,16.13238 L 830.5,335.5 l -11.25715,0.28282 -11.25715,0.28282 z m 167.66609,64.3208 c -13.72666,-4.39177 -23.70535,-15.34064 -27.50751,-30.1819 -2.30703,-9.00525 -2.26803,-9.03839 10.24888,-8.70574 l 10.68698,0.28402 1.45636,4.375 c 0.80099,2.40625 3.15984,6.07849 5.24188,8.16053 5.44429,5.44429 10.32333,6.20223 37.27037,5.78976 20.3815,-0.31197 22.5208,-0.5142 26.1941,-2.47609 4.9067,-2.62062 6.9664,-4.82788 8.9619,-9.60368 3.4748,-8.31647 0.4575,-17.93817 -7.1355,-22.75347 l -4.3854,-2.78113 -30.7205,-0.42958 c -34.84412,-0.48725 -37.66875,-1.02259 -46.5242,-8.81747 -19.96788,-17.57643 -15.21172,-49.39565 9.08563,-60.78381 L 974.5,203.5 h 35.5 35.5 l 5.6751,2.66041 c 7.1233,3.33923 13.705,9.34715 17.0366,15.55119 2.6812,4.99283 5.2158,14.7876 4.2366,16.37197 -0.3115,0.50404 -5.454,0.91643 -11.4279,0.91643 h -10.8615 l -0.628,-2.85946 c -0.7351,-3.3469 -4.8468,-7.56592 -8.846,-9.07692 C 1038.9358,226.40275 1027.0652,226 1009.336,226 c -24.58247,0 -29.02107,0.23125 -32.05293,1.66996 -8.94119,4.24288 -9.84545,17.33233 -1.58418,22.93154 2.56169,1.73623 5.49831,1.94124 34.35771,2.3985 l 31.5565,0.5 7.6151,3.76588 c 33.4811,16.55748 30.3189,64.75916 -5.0296,76.66721 -5.6458,1.90195 -8.3927,2.06262 -34.4171,2.01313 -24.31865,-0.0462 -29.06493,-0.30443 -33.87256,-1.8426 z m -726.97878,-28.5068 c -0.2905,-0.29049 1.60703,-6.91869 4.21673,-14.72932 3.33908,-9.99357 4.47655,-14.70259 3.83913,-15.89362 -0.83291,-1.55631 -5.31396,-1.70116 -55.6959,-1.80028 -30.13457,-0.0593 -58.30104,-0.40775 -62.59216,-0.77436 -7.20251,-0.61535 -7.77882,-0.82919 -7.5,-2.7829 L 131.5,267.5 h 59.4158 c 40.25729,0 59.5279,-0.33546 59.76345,-1.04035 0.19121,-0.57219 -3.68541,-6.19719 -8.61469,-12.5 -9.46409,-12.10121 -23.67403,-30.6712 -34.54316,-45.14206 -3.58677,-4.77533 -6.5214,-9.52283 -6.5214,-10.55 0,-4.64855 5.8364,-5.79304 8.70332,-1.70669 0.98817,1.40849 3.47026,4.67099 5.51574,7.25 4.85042,6.11556 24.30503,31.58926 35.27525,46.1891 5.02329,6.68532 9.34535,11.5 10.32335,11.5 1.26521,0 2.59642,-2.85138 5.36894,-11.5 19.37506,-60.43869 42.00433,-128.50553 43.05313,-129.5 0.72098,-0.68364 0.8936,-0.52546 0.54564,0.5 -0.27994,0.825 -6.35645,19.725 -13.50334,42 -7.14689,22.275 -15.52319,48.375 -18.61398,58 -3.0908,9.625 -7.61422,23.34427 -10.05205,30.48727 -3.1615,9.26344 -4.16833,13.4807 -3.51141,14.70816 0.72579,1.35614 2.56096,1.78276 8.6582,2.01274 6.97327,0.26302 7.73721,0.4893 7.73721,2.29183 0,1.65731 -0.77104,2.05365 -4.5,2.31313 -6.38997,0.44465 -6.87287,1.44353 -3.18226,6.58261 3.43705,4.78601 3.84995,6.53657 1.98226,8.40426 -2.56483,2.56483 -5.67708,1.3127 -9.51509,-3.82817 -2.11124,-2.82792 -4.41704,-4.90644 -5.26939,-4.75 -0.96508,0.17714 -2.98096,4.63663 -5.55028,12.27817 -5.14628,15.30585 -4.91503,14.71688 -5.53508,14.09682 z M 628.92045,173.98966 C 619.78305,172.44313 612.54724,166.95008 607.8578,158 605.51721,153.53284 605.5,153.25552 605.5,120 V 86.5 h 7 7 l 0.5,32.0463 c 0.68247,43.74144 -1.71171,40.80985 33.70291,41.26808 L 678,160.12877 v 6.82863 c 0,5.30432 -0.35309,6.96412 -1.58179,7.43561 -2.25131,0.86391 -42.00497,0.52632 -47.49776,-0.40335 z M 506,129.94735 V 85.894703 l 31.25,0.302648 c 30.07224,0.291243 31.40653,0.386354 35.40327,2.523627 10.33821,5.528391 15.31294,19.244122 10.85217,29.920252 l -1.49457,3.577 4.42408,4.92065 c 11.1259,12.37467 9.79274,31.29218 -2.88805,40.98148 -2.60597,1.99119 -6.4348,4.12869 -8.50853,4.75 C 572.5704,173.60978 559.99498,174 538.63398,174 H 506 Z m 66.73307,27.78546 c 6.13447,-3.35209 8.5108,-13.19473 4.50603,-18.66372 -4.06001,-5.54441 -6.71611,-6.06584 -30.90731,-6.06754 -12.19252,-8.5e-4 -22.88002,0.27159 -23.75,0.60544 C 521.25794,134.115 521,136.22133 521,146.52366 c 0,8.89023 0.34723,12.46116 1.25,12.85501 0.6875,0.29993 11.6,0.44981 24.25,0.33307 19.83774,-0.18308 23.44451,-0.45516 26.23307,-1.97893 z m -5.08883,-42.10322 c 3.87219,-3.33072 3.86195,-8.93727 -0.0224,-12.27847 -2.76755,-2.38054 -2.8612,-2.38866 -24.45,-2.1204 L 521.5,101.5 l -0.29913,6.90079 c -0.16452,3.79543 -0.0661,7.50793 0.21862,8.25 0.41226,1.07433 4.89311,1.34921 21.99336,1.34921 21.15253,0 21.51708,-0.0357 24.23139,-2.37041 z m 142.11771,56.48402 c -26.44551,-8.70962 -38.34932,-38.01791 -25.40926,-62.55998 8.67342,-16.449975 27.56979,-25.860312 45.68934,-22.753155 23.17833,3.974642 38.18576,23.038375 36.71351,46.636665 -0.98983,15.86582 -9.92994,29.08021 -24.56872,36.31509 -6.81071,3.36604 -8.30196,3.71274 -17.07464,3.96965 -7.32226,0.21445 -10.97916,-0.1687 -15.35023,-1.60827 z m 27.68212,-16.52797 c 9.23528,-5.41223 14.49889,-14.27414 14.53397,-24.46962 0.0285,-8.27106 -1.4014,-12.82878 -5.85768,-18.67163 C 735.66251,98.732604 715.2692,97.216895 703.098,109.2468 c -6.07143,6.00095 -8.32759,10.92759 -8.88044,19.3917 -0.39739,6.08409 -0.10223,7.93045 1.99825,12.5 1.35548,2.94883 3.70887,6.83283 5.22975,8.63111 8.26215,9.76917 24.7167,12.42762 35.99851,5.81603 z m 70.31788,16.4725 c -19.35646,-6.18777 -32.14143,-25.06366 -30.47106,-44.98782 1.45485,-17.35353 12.18813,-31.720066 28.58991,-38.267697 5.23497,-2.089814 7.44833,-2.267289 32.3692,-2.59548 L 865,85.854865 V 93.427432 101 h -24.46249 c -22.12341,0 -24.98057,0.19384 -29.88067,2.0272 -7.19766,2.69299 -14.67538,10.50182 -17.12823,17.88667 -3.69918,11.13719 0.063,24.33986 9.02939,31.68717 7.5763,6.20821 10.24509,6.71582 37.692,7.16921 L 865,160.17909 V 167.08954 174 l -25.75,-0.0538 c -22.12324,-0.0462 -26.55818,-0.31213 -31.48805,-1.88808 z m 71.69561,0.69186 c -0.26381,-0.6875 -0.36219,-20.375 -0.21861,-43.75 L 879.5,86.5 l 7.23038,-0.293413 7.23037,-0.293414 0.26963,21.710727 c 0.18721,15.07524 0.61608,21.82602 1.40322,22.08795 0.62348,0.20747 11.57816,-9.20532 24.34373,-20.91732 12.76556,-11.71199 23.83135,-21.6479 24.59062,-22.079798 0.75928,-0.431897 5.96397,-0.656897 11.56599,-0.5 L 966.31942,86.5 948.10365,103.3529 c -13.03759,12.06214 -18.12878,17.38982 -17.90972,18.74165 0.16834,1.03881 8.29357,12.89561 18.05607,26.34845 9.7625,13.45284 17.75,24.7066 17.75,25.00835 0,0.30176 -3.99936,0.54865 -8.88746,0.54865 h -8.88746 l -14.85869,-20.5 c -8.17228,-11.275 -15.4851,-20.5 -16.25071,-20.5 -1.3681,0 -4.4325,2.5745 -16.86568,14.16938 L 894,152.99797 V 163.49899 174 h -7.03138 c -4.70262,0 -7.19025,-0.41399 -7.51106,-1.25 z"
         id="path281" />
    </g>
  </g>
</svg>
